<?xml version="1.0" encoding="UTF-8"?><svg id="Light_Lilac_Logo" xmlns="http://www.w3.org/2000/svg" width="939.7" height="263.5" viewBox="0 0 939.7 263.5"><defs><style>.cls-1{fill:#ded9ee;}</style></defs><g id="STARDUST"><g><path class="cls-1" d="M60.6,54.3c-2.9-1.2-6.3-2.4-10.3-3.8l-3-1h0L5.9,33.5c0,1.1-.2,2.2-.2,3.3,0,18,10.3,27.7,28.9,34.6,2.4,1,6.4,2.3,9.7,3.5h0c1.4,.5,46.5,18,46.5,18,0-1,.1-2.1,.1-3.1,0-17.1-8.7-27.2-30.5-35.5Z"/><path class="cls-1" d="M67.6,36l15.7-15.7C74.2,8.8,61.7,3.1,45.5,3.1s-20.6,3.1-28.3,9.2c-.2,.1-.3,.3-.5,.4l38.9,15s8.8,3.6,11.9,8.2Z"/><path class="cls-1" d="M46.9,102.4c-13.7,0-23.6-5.3-30-15.8L0,103.6c8.7,13.5,24.6,22.7,46.7,22.7s27.8-4.3,35.2-11.9l-31.4-12.1c-1.1,.1-2.3,.2-3.6,.2Z"/></g><g><polygon class="cls-1" points="111.6 6.8 111.6 30.8 143.9 30.8 170.3 30.8 202.2 30.8 202.2 6.8 111.6 6.8"/><polygon class="cls-1" points="170.3 126.2 170.3 57.2 143.9 30.8 143.9 126.2 170.3 126.2"/></g><path class="cls-1" d="M426.2,80.1c12.8-5.5,21.2-18.7,21.2-33.9s-3.9-20.4-12-27.9c-7.9-7.7-17.5-11.5-28.6-11.5h-50l24,24h25.3c8.4,0,14.9,6.7,14.9,15.8s-6.8,16.6-17.1,16.6h-23.7l-23.4-23.4V126.2h26.2v-39.7h17.6l24.8,39.7h29.8l-29.1-46.1Z"/><path class="cls-1" d="M578.4,23.5c-11-11.1-26.5-16.6-46.8-16.6h-45.2l24,24h19.5c14.2,0,24.1,3.3,29.8,9.6,5.8,6.3,8.7,15.2,8.7,26.4,0,21.9-10.3,35.5-38.4,35.5h-17.3v-36.1l-26.4-26.4V126.2h45.4c20.4,0,36-5.3,46.8-16.1,11-10.8,16.4-25.3,16.4-43.3s-5.5-32.4-16.6-43.3Z"/><path class="cls-1" d="M690.7,5V73.3c0,19.4-8.1,28.9-24.3,28.9s-24.5-9.6-24.5-28.9V5h-26.4V76c0,16.3,4.8,28.6,14.4,37.3,9.6,8.6,21.8,12.8,36.5,12.8s26.7-4.3,36.3-13c9.6-8.7,14.4-21.1,14.4-37.2V31.3l-26.4-26.4Z"/><g><path class="cls-1" d="M798.1,54.3c-2.9-1.2-6.3-2.4-10.3-3.8l-3-1h0l-41.4-16c0,1.1-.2,2.2-.2,3.3,0,18,10.3,27.7,28.9,34.6,2.4,1,6.4,2.3,9.7,3.5h0c1.4,.5,46.5,18,46.5,18,0-1,.1-2.1,.1-3.1,0-17.1-8.7-27.2-30.5-35.5Z"/><path class="cls-1" d="M805.2,36l15.7-15.7c-9.1-11.4-21.7-17.1-37.8-17.1s-20.6,3.1-28.3,9.2c-.2,.1-.3,.3-.5,.4l38.9,15s8.8,3.6,11.9,8.2Z"/><path class="cls-1" d="M784.4,102.4c-13.7,0-23.6-5.3-30-15.8l-16.9,16.9c8.7,13.5,24.6,22.7,46.7,22.7s27.8-4.3,35.2-11.9l-31.4-12.1c-1.1,.1-2.3,.2-3.6,.2Z"/></g><g><polygon class="cls-1" points="849.1 6.8 849.1 30.8 881.5 30.8 907.9 30.8 939.7 30.8 939.7 6.8 849.1 6.8"/><polygon class="cls-1" points="907.9 126.2 907.9 57.2 881.5 30.8 881.5 126.2 907.9 126.2"/></g><polygon class="cls-1" points="263.6 0 250.4 26.7 263.4 53.4 263.4 53.4 271.7 70.4 273.4 73.9 276.5 80.2 250.6 80.2 237.4 53.2 201.4 126.2 229.4 126.2 238.6 107.2 240.6 102.6 286.5 102.6 288.4 107.2 297.7 126.2 325.8 126.2 263.6 0"/></g><g id="LAB"><polygon class="cls-1" points="462.3 144.5 449.9 169.7 462.1 194.8 462.1 194.8 469.9 210.8 471.6 214.2 474.4 220.1 450 220.1 437.6 194.6 403.7 263.5 430 263.5 438.7 245.5 440.6 241.2 483.8 241.2 485.7 245.5 494.4 263.5 520.9 263.5 462.3 144.5"/><polygon class="cls-1" points="332 240.9 332 150.9 307.2 150.9 307.2 263.5 383.6 263.5 361 240.9 332 240.9"/><path class="cls-1" d="M609.9,202.3c9-3.2,14.4-11.8,14.4-22.6s-3.1-15.2-9.4-20.5c-6.1-5.5-13.7-8.2-22.8-8.2h-51.2l21.3,21.3h26c6.9,0,11.9,5,11.9,11.6s-5,11.9-12.1,11.9h-40.7v19.2h45.7c8.6,0,14.7,5.5,14.7,13.2s-6.1,13.7-14.5,13.7h-45.9v21.5h50.9c9.8,0,17.9-3.1,24.4-9.4,6.6-6.3,9.8-14.4,9.8-23.9,0-14.4-8.2-25.3-22.6-27.9Z"/></g></svg>